<svg xmlns="http://www.w3.org/2000/svg" viewBox="0 0 36.47 36.47"><defs><style>.cls-1{fill:#4e598f;}.cls-2{fill:#364270;}.cls-3{fill:#fff;}</style></defs><title>Facebook</title><g id="Layer_2" data-name="Layer 2"><g id="Layer_1-2" data-name="Layer 1"><circle class="cls-1" cx="18.23" cy="18.23" r="18.23"/><path class="cls-2" d="M36.44,17.21,27.85,8.62c-.14,0-.5-.12-.65-.09-3.68.61-7.24,0-10.81,1-1.72.49-1.84,2.58-2.46,3.93-.86,2.46-.74,5.16-1.84,7.49-.74,1.6-2.46,2.58-3.07,4.42-.2.77-.19,1.74-.42,2.47l8.62,8.61,1,0A18.23,18.23,0,0,0,36.47,18.23C36.47,17.89,36.46,17.55,36.44,17.21Z"/><path class="cls-3" d="M25.86,7.8H10.61A2.81,2.81,0,0,0,7.8,10.61V25.86a2.81,2.81,0,0,0,2.81,2.81h7.52V21.21H16.2a.46.46,0,0,1-.46-.46v-2.4a.46.46,0,0,1,.46-.46h1.93V15.57a3.8,3.8,0,0,1,4.05-4.16h2a.46.46,0,0,1,.46.46v2a.46.46,0,0,1-.46.46H22.94c-1.31,0-1.56.62-1.56,1.53v2h2.87a.46.46,0,0,1,.45.51l-.28,2.4a.46.46,0,0,1-.45.4H21.4v7.46h4.47a2.81,2.81,0,0,0,2.81-2.81V10.61A2.81,2.81,0,0,0,25.86,7.8Z"/><polygon class="cls-3" points="18.13 28.67 18.14 21.21 18.11 21.21 18.11 28.67 18.13 28.67"/></g></g></svg>