<svg xmlns="http://www.w3.org/2000/svg" viewBox="0 0 36.47 36.47"><defs><style>.cls-1{fill:#cf4c3c;}.cls-2{fill:#ad3228;}.cls-3{fill:#fff;}</style></defs><title>G+</title><g id="Layer_2" data-name="Layer 2"><g id="Layer_1-2" data-name="Layer 1"><circle class="cls-1" cx="18.23" cy="18.23" r="18.23"/><path class="cls-2" d="M26.39,15.41l-2.55,3.06-4.79-5H12.43l-2.68,2.9v6.27L22.61,35.54A17.88,17.88,0,0,0,35.09,24.11Z"/><path class="cls-3" d="M15.19,19.58h3.19a4.06,4.06,0,1,1-1.1-4.35.44.44,0,0,0,.6,0L19,14.13a.44.44,0,0,0,0-.64,6.51,6.51,0,0,0-4.36-1.79,6.54,6.54,0,1,0,6.39,6.9s0-1.5,0-1.5h-5.9a.44.44,0,0,0-.44.44v1.6a.44.44,0,0,0,.44.44Z"/><path class="cls-3" d="M26.5,17.25V15.68a.38.38,0,0,0-.38-.38H24.79a.38.38,0,0,0-.38.38v1.57H22.84a.38.38,0,0,0-.38.38V19a.38.38,0,0,0,.38.38h1.57V20.9a.38.38,0,0,0,.38.38h1.32a.38.38,0,0,0,.38-.38V19.33h1.57a.38.38,0,0,0,.38-.38V17.63a.38.38,0,0,0-.38-.38Z"/></g></g></svg>